<svg width="1200" height="780" viewBox="0 0 1200 780" fill="none" xmlns="http://www.w3.org/2000/svg">
  <defs>
    <linearGradient id="paper" x1="0" y1="0" x2="1200" y2="780" gradientUnits="userSpaceOnUse">
      <stop stop-color="#FCFCFC"/>
      <stop offset="0.55" stop-color="#F7F7F8"/>
      <stop offset="1" stop-color="#F1F5F9"/>
    </linearGradient>
    <linearGradient id="ink" x1="180" y1="140" x2="960" y2="660" gradientUnits="userSpaceOnUse">
      <stop stop-color="#0F172A"/>
      <stop offset="1" stop-color="#27272A"/>
    </linearGradient>
    <linearGradient id="blue" x1="0" y1="0" x2="1" y2="1">
      <stop stop-color="#38BDF8"/>
      <stop offset="1" stop-color="#2563EB"/>
    </linearGradient>
    <filter id="softShadow" x="-20%" y="-20%" width="140%" height="140%">
      <feDropShadow dx="0" dy="18" stdDeviation="24" flood-color="#0F172A" flood-opacity="0.12"/>
    </filter>
    <pattern id="grid" width="36" height="36" patternUnits="userSpaceOnUse">
      <path d="M36 0H0V36" stroke="#E4E4E7" stroke-width="1" opacity="0.6"/>
    </pattern>
  </defs>

  <rect width="1200" height="780" rx="38" fill="url(#paper)"/>
  <rect x="42" y="42" width="1116" height="696" rx="30" fill="url(#grid)" opacity="0.75"/>
  <rect x="86" y="82" width="1028" height="616" rx="26" fill="white" fill-opacity="0.86" stroke="#E4E4E7"/>

  <g opacity="0.22">
    <path d="M144 206H1056" stroke="#94A3B8" stroke-dasharray="4 14"/>
    <path d="M144 342H1056" stroke="#94A3B8" stroke-dasharray="4 14"/>
    <path d="M144 478H1056" stroke="#94A3B8" stroke-dasharray="4 14"/>
    <path d="M260 132V636" stroke="#94A3B8" stroke-dasharray="4 14"/>
    <path d="M500 132V636" stroke="#94A3B8" stroke-dasharray="4 14"/>
    <path d="M740 132V636" stroke="#94A3B8" stroke-dasharray="4 14"/>
    <path d="M980 132V636" stroke="#94A3B8" stroke-dasharray="4 14"/>
  </g>

  <g filter="url(#softShadow)">
    <rect x="148" y="142" width="218" height="96" rx="18" fill="#111827"/>
    <text x="178" y="178" fill="#F8FAFC" font-family="Inter, Arial, sans-serif" font-size="16" font-weight="700">user signal</text>
    <text x="178" y="207" fill="#A1A1AA" font-family="Inter, Arial, sans-serif" font-size="13">intent, spend, eligibility</text>
    <circle cx="326" cy="188" r="16" fill="#2563EB"/>
    <path d="M318 188H334M326 180V196" stroke="white" stroke-width="2"/>
  </g>

  <g filter="url(#softShadow)">
    <rect x="428" y="126" width="266" height="128" rx="22" fill="url(#ink)"/>
    <text x="462" y="169" fill="#F8FAFC" font-family="Inter, Arial, sans-serif" font-size="19" font-weight="700">product mechanism</text>
    <text x="462" y="200" fill="#A1A1AA" font-family="Inter, Arial, sans-serif" font-size="13">rules, ranking, evidence, taste</text>
    <rect x="462" y="220" width="64" height="6" rx="3" fill="url(#blue)"/>
    <rect x="536" y="220" width="42" height="6" rx="3" fill="#52525B"/>
    <rect x="588" y="220" width="72" height="6" rx="3" fill="#71717A"/>
  </g>

  <g filter="url(#softShadow)">
    <rect x="790" y="142" width="250" height="96" rx="18" fill="#F8FAFC" stroke="#CBD5E1"/>
    <text x="822" y="178" fill="#0F172A" font-family="Inter, Arial, sans-serif" font-size="16" font-weight="700">partner rails</text>
    <text x="822" y="207" fill="#64748B" font-family="Inter, Arial, sans-serif" font-size="13">APIs, BRE, fallbacks</text>
  </g>

  <path d="M366 190C392 190 402 190 428 190" stroke="#0F172A" stroke-width="3"/>
  <path d="M694 190C734 190 750 190 790 190" stroke="#0F172A" stroke-width="3"/>
  <circle cx="428" cy="190" r="6" fill="#0F172A"/>
  <circle cx="694" cy="190" r="6" fill="#0F172A"/>

  <g filter="url(#softShadow)">
    <rect x="182" y="340" width="214" height="118" rx="20" fill="#F8FAFC" stroke="#D4D4D8"/>
    <text x="214" y="382" fill="#18181B" font-family="Inter, Arial, sans-serif" font-size="17" font-weight="700">ambiguous bet</text>
    <text x="214" y="412" fill="#71717A" font-family="Inter, Arial, sans-serif" font-size="13">unclear first version</text>
    <path d="M214 432H330" stroke="#D4D4D8" stroke-width="4" stroke-linecap="round"/>
  </g>

  <g filter="url(#softShadow)">
    <rect x="474" y="314" width="302" height="166" rx="24" fill="#0F172A"/>
    <text x="512" y="360" fill="#F8FAFC" font-family="Inter, Arial, sans-serif" font-size="22" font-weight="700">operating brief</text>
    <text x="512" y="394" fill="#A1A1AA" font-family="Inter, Arial, sans-serif" font-size="14">strategy + API + UX + GTM</text>
    <g transform="translate(512 424)">
      <rect width="44" height="8" rx="4" fill="#38BDF8"/>
      <rect x="56" width="78" height="8" rx="4" fill="#34D399"/>
      <rect x="148" width="42" height="8" rx="4" fill="#F59E0B"/>
      <rect x="204" width="52" height="8" rx="4" fill="#A78BFA"/>
    </g>
  </g>

  <g filter="url(#softShadow)">
    <rect x="846" y="350" width="178" height="96" rx="18" fill="#ECFEFF" stroke="#A5F3FC"/>
    <text x="878" y="386" fill="#164E63" font-family="Inter, Arial, sans-serif" font-size="16" font-weight="700">proof</text>
    <text x="878" y="415" fill="#0E7490" font-family="Inter, Arial, sans-serif" font-size="13">demo, data, launch</text>
  </g>

  <path d="M396 399C428 399 442 399 474 399" stroke="#0F172A" stroke-width="3"/>
  <path d="M776 399C810 399 812 399 846 399" stroke="#0F172A" stroke-width="3"/>
  <circle cx="474" cy="399" r="6" fill="#0F172A"/>
  <circle cx="776" cy="399" r="6" fill="#0F172A"/>

  <rect x="148" y="586" width="892" height="52" rx="14" fill="#FAFAFA" stroke="#E4E4E7"/>
  <text x="178" y="619" fill="#52525B" font-family="JetBrains Mono, monospace" font-size="14">problem → mechanism → proof → distribution → operating cadence</text>
</svg>
