<svg width="760" height="520" viewBox="0 0 760 520" fill="none" xmlns="http://www.w3.org/2000/svg">
  <defs>
    <linearGradient id="bg" x1="0" y1="0" x2="760" y2="520"><stop stop-color="#FFF7ED"/><stop offset="1" stop-color="#F8FAFC"/></linearGradient>
    <filter id="s"><feDropShadow dx="0" dy="16" stdDeviation="20" flood-color="#9A3412" flood-opacity="0.12"/></filter>
  </defs>
  <rect width="760" height="520" rx="28" fill="url(#bg)"/>
  <rect x="58" y="58" width="644" height="404" rx="24" fill="white" stroke="#FED7AA"/>
  <text x="94" y="110" fill="#9A3412" font-family="Inter, Arial" font-size="20" font-weight="750">Founder / Builder</text>
  <text x="94" y="138" fill="#C2410C" font-family="Inter, Arial" font-size="13">surface decision + operational truth + business model</text>
  <path d="M104 344C172 266 238 294 302 232C374 162 442 192 510 132C564 84 616 96 660 74" stroke="#F97316" stroke-width="4"/>
  <g filter="url(#s)">
    <rect x="92" y="184" width="156" height="92" rx="18" fill="#FFEDD5" stroke="#FDBA74"/>
    <rect x="304" y="246" width="156" height="92" rx="18" fill="#FFF7ED" stroke="#FDBA74"/>
    <rect x="512" y="286" width="156" height="92" rx="18" fill="#FEF3C7" stroke="#FCD34D"/>
  </g>
  <text x="126" y="225" fill="#9A3412" font-family="Inter, Arial" font-size="16" font-weight="750">supply</text>
  <text x="126" y="252" fill="#C2410C" font-family="Inter, Arial" font-size="12">200+ hotels</text>
  <text x="338" y="287" fill="#9A3412" font-family="Inter, Arial" font-size="16" font-weight="750">product</text>
  <text x="338" y="314" fill="#C2410C" font-family="Inter, Arial" font-size="12">web, app, APIs</text>
  <text x="546" y="327" fill="#92400E" font-family="Inter, Arial" font-size="16" font-weight="750">operations</text>
  <text x="546" y="354" fill="#B45309" font-family="Inter, Arial" font-size="12">post-sale reality</text>
  <circle cx="302" cy="232" r="8" fill="#F97316"/>
  <circle cx="510" cy="132" r="8" fill="#F97316"/>
  <rect x="94" y="414" width="574" height="1" fill="#FED7AA"/>
  <text x="94" y="438" fill="#78716C" font-family="JetBrains Mono, monospace" font-size="13">stay close to user, supply, support, and commercial reality</text>
</svg>
