<svg width="760" height="520" viewBox="0 0 760 520" fill="none" xmlns="http://www.w3.org/2000/svg">
  <defs>
    <linearGradient id="bg" x1="0" y1="0" x2="760" y2="520"><stop stop-color="#EFF6FF"/><stop offset="1" stop-color="#F8FAFC"/></linearGradient>
    <filter id="s"><feDropShadow dx="0" dy="14" stdDeviation="18" flood-color="#1E3A8A" flood-opacity="0.12"/></filter>
  </defs>
  <rect width="760" height="520" rx="28" fill="url(#bg)"/>
  <rect x="54" y="54" width="652" height="412" rx="24" fill="white" stroke="#BFDBFE"/>
  <text x="90" y="104" fill="#0F172A" font-family="Inter, Arial" font-size="20" font-weight="750">BankKaro / great.cards</text>
  <text x="90" y="132" fill="#64748B" font-family="Inter, Arial" font-size="13">consumer fintech recommendation system</text>
  <g filter="url(#s)">
    <rect x="90" y="188" width="148" height="108" rx="18" fill="#DBEAFE" stroke="#93C5FD"/>
    <text x="120" y="229" fill="#1E3A8A" font-family="Inter, Arial" font-size="16" font-weight="700">Spend</text>
    <text x="120" y="257" fill="#2563EB" font-family="Inter, Arial" font-size="12">category signal</text>
    <rect x="300" y="164" width="164" height="156" rx="20" fill="#111827"/>
    <text x="332" y="220" fill="white" font-family="Inter, Arial" font-size="17" font-weight="700">Decision</text>
    <text x="332" y="249" fill="#A1A1AA" font-family="Inter, Arial" font-size="12">rupee math + ranking</text>
    <rect x="526" y="188" width="144" height="108" rx="18" fill="#F8FAFC" stroke="#CBD5E1"/>
    <text x="556" y="229" fill="#0F172A" font-family="Inter, Arial" font-size="16" font-weight="700">Apply</text>
    <text x="556" y="257" fill="#64748B" font-family="Inter, Arial" font-size="12">bank API rail</text>
  </g>
  <path d="M238 242H300M464 242H526" stroke="#2563EB" stroke-width="4"/>
  <circle cx="268" cy="242" r="7" fill="#2563EB"/>
  <circle cx="494" cy="242" r="7" fill="#2563EB"/>
  <rect x="90" y="370" width="580" height="44" rx="12" fill="#0F172A"/>
  <text x="118" y="398" fill="#DBEAFE" font-family="JetBrains Mono, monospace" font-size="13">one logic layer supporting recommendations, demos, and distribution</text>
</svg>
