<svg width="760" height="520" viewBox="0 0 760 520" fill="none" xmlns="http://www.w3.org/2000/svg">
  <defs>
    <linearGradient id="bg" x1="0" y1="0" x2="760" y2="520" gradientUnits="userSpaceOnUse">
      <stop stop-color="#FFF7ED"/>
      <stop offset="1" stop-color="#FAFAFA"/>
    </linearGradient>
    <filter id="soft" x="-20%" y="-20%" width="140%" height="140%">
      <feDropShadow dx="0" dy="16" stdDeviation="20" flood-color="#9A3412" flood-opacity="0.10"/>
    </filter>
  </defs>
  <rect width="760" height="520" rx="26" fill="url(#bg)"/>
  <rect x="48" y="48" width="664" height="424" rx="22" fill="#FFFFFF" stroke="#FED7AA"/>

  <text x="84" y="98" fill="#0F172A" font-family="Inter, Arial, sans-serif" font-size="20" font-weight="750">Founder / Builder</text>
  <text x="84" y="126" fill="#78716C" font-family="Inter, Arial, sans-serif" font-size="13">supply, operations, and customer experience moving together</text>

  <path d="M380 164L188 376H572L380 164Z" fill="#FFF7ED" stroke="#FDBA74" stroke-width="2"/>
  <path d="M380 164L188 376" stroke="#FB923C" stroke-width="3"/>
  <path d="M380 164L572 376" stroke="#FB923C" stroke-width="3"/>
  <path d="M188 376H572" stroke="#FB923C" stroke-width="3"/>

  <g filter="url(#soft)" font-family="Inter, Arial, sans-serif">
    <rect x="294" y="126" width="172" height="80" rx="16" fill="#111827"/>
    <text x="328" y="160" fill="#F8FAFC" font-size="15" font-weight="750">customer</text>
    <text x="328" y="183" fill="#A1A1AA" font-size="12">booking + trust</text>

    <rect x="100" y="344" width="176" height="82" rx="16" fill="#FFF7ED" stroke="#FDBA74"/>
    <text x="132" y="378" fill="#9A3412" font-size="15" font-weight="750">supply</text>
    <text x="132" y="401" fill="#C2410C" font-size="12">200+ hotels</text>

    <rect x="484" y="344" width="176" height="82" rx="16" fill="#FFF7ED" stroke="#FDBA74"/>
    <text x="516" y="378" fill="#9A3412" font-size="15" font-weight="750">operations</text>
    <text x="516" y="401" fill="#C2410C" font-size="12">support + post-sale</text>
  </g>

  <rect x="244" y="430" width="272" height="30" rx="9" fill="#FFEDD5" stroke="#FED7AA"/>
  <text x="276" y="450" fill="#9A3412" font-family="JetBrains Mono, monospace" font-size="12">web + mobile + integrations</text>
</svg>
