<svg width="760" height="520" viewBox="0 0 760 520" fill="none" xmlns="http://www.w3.org/2000/svg">
  <defs>
    <linearGradient id="bg" x1="0" y1="0" x2="760" y2="520"><stop stop-color="#ECFDF5"/><stop offset="1" stop-color="#F8FAFC"/></linearGradient>
    <filter id="s"><feDropShadow dx="0" dy="16" stdDeviation="20" flood-color="#064E3B" flood-opacity="0.14"/></filter>
  </defs>
  <rect width="760" height="520" rx="28" fill="url(#bg)"/>
  <rect x="58" y="58" width="644" height="404" rx="24" fill="white" stroke="#BBF7D0"/>
  <text x="94" y="110" fill="#064E3B" font-family="Inter, Arial" font-size="20" font-weight="750">Systems at Scale</text>
  <text x="94" y="138" fill="#047857" font-family="Inter, Arial" font-size="13">trust, compliance, data, operations, and customer experience</text>
  <g stroke="#059669" stroke-width="2.5" opacity="0.85">
    <path d="M380 178V112"/>
    <path d="M380 342V408"/>
    <path d="M298 260H132"/>
    <path d="M462 260H628"/>
    <path d="M322 202L190 142"/>
    <path d="M438 202L570 142"/>
    <path d="M322 318L190 378"/>
    <path d="M438 318L570 378"/>
  </g>
  <g filter="url(#s)">
    <circle cx="380" cy="260" r="78" fill="#064E3B"/>
    <text x="341" y="254" fill="#ECFDF5" font-family="Inter, Arial" font-size="17" font-weight="750">trusted</text>
    <text x="338" y="282" fill="#A7F3D0" font-family="Inter, Arial" font-size="13">product system</text>
  </g>
  <g fill="#FFFFFF" stroke="#86EFAC">
    <rect x="322" y="88" width="116" height="50" rx="14"/>
    <rect x="322" y="382" width="116" height="50" rx="14"/>
    <rect x="94" y="235" width="116" height="50" rx="14"/>
    <rect x="550" y="235" width="116" height="50" rx="14"/>
    <rect x="144" y="116" width="116" height="50" rx="14"/>
    <rect x="500" y="116" width="116" height="50" rx="14"/>
    <rect x="144" y="354" width="116" height="50" rx="14"/>
    <rect x="500" y="354" width="116" height="50" rx="14"/>
  </g>
  <g fill="#065F46" font-family="Inter, Arial" font-size="13" font-weight="700">
    <text x="352" y="119">KYC</text><text x="350" y="413">Data</text><text x="132" y="266">Ops</text><text x="588" y="266">UX</text>
    <text x="180" y="147">Risk</text><text x="534" y="147">Scale</text><text x="176" y="385">Rules</text><text x="528" y="385">Support</text>
  </g>
</svg>
